<svg xmlns="http://www.w3.org/2000/svg" xmlns:xlink="http://www.w3.org/1999/xlink" preserveAspectRatio="xMidYMid" width="368" height="61" viewBox="0 0 368 61">
  <defs>
    <style>
      .cls-1 {
        stroke: #c2beba;
        stroke-width: 1px;
        fill: none;
        fill-rule: evenodd;
      }
    </style>
  </defs>
  <path d="M362.000,35.500 C358.962,35.500 356.500,33.037 356.500,30.000 C356.500,26.962 358.962,24.500 362.000,24.500 C365.037,24.500 367.500,26.962 367.500,30.000 C367.500,33.037 365.037,35.500 362.000,35.500 ZM213.500,30.500 C213.500,47.068 200.069,60.500 183.500,60.500 C166.931,60.500 153.500,47.068 153.500,30.500 L11.500,30.500 L11.500,30.000 L11.500,29.500 L153.525,29.500 C154.054,13.395 167.267,0.500 183.500,0.500 C199.733,0.500 212.946,13.395 213.475,29.500 L356.500,29.500 L356.500,30.000 L356.500,30.500 L213.500,30.500 ZM6.000,35.500 C2.962,35.500 0.500,33.037 0.500,30.000 C0.500,26.962 2.962,24.500 6.000,24.500 C9.038,24.500 11.500,26.962 11.500,30.000 C11.500,33.037 9.038,35.500 6.000,35.500 Z" class="cls-1"/>
</svg>
